<mxfile host="Electron" agent="Mozilla/5.0 (Macintosh; Intel Mac OS X 10_15_7) AppleWebKit/537.36 (KHTML, like Gecko) draw.io/24.7.5 Chrome/126.0.6478.183 Electron/31.3.0 Safari/537.36" version="24.7.5">
  <diagram id="prtHgNgQTEPvFCAcTncT" name="Page-1">
    <mxGraphModel dx="2312" dy="1023" grid="1" gridSize="10" guides="1" tooltips="1" connect="1" arrows="1" fold="1" page="1" pageScale="1" pageWidth="827" pageHeight="1169" math="0" shadow="0">
      <root>
        <mxCell id="0" />
        <mxCell id="1" parent="0" />
        <mxCell id="pDR1JLYmz75eAKqsYBln-3" style="edgeStyle=orthogonalEdgeStyle;rounded=0;orthogonalLoop=1;jettySize=auto;html=1;entryX=0.5;entryY=0;entryDx=0;entryDy=0;" edge="1" parent="1" source="pDR1JLYmz75eAKqsYBln-1" target="pDR1JLYmz75eAKqsYBln-2">
          <mxGeometry relative="1" as="geometry" />
        </mxCell>
        <mxCell id="pDR1JLYmz75eAKqsYBln-5" style="edgeStyle=orthogonalEdgeStyle;rounded=0;orthogonalLoop=1;jettySize=auto;html=1;exitX=0.5;exitY=1;exitDx=0;exitDy=0;entryX=0.5;entryY=0;entryDx=0;entryDy=0;" edge="1" parent="1" source="pDR1JLYmz75eAKqsYBln-1">
          <mxGeometry relative="1" as="geometry">
            <mxPoint x="-156" y="250" as="targetPoint" />
          </mxGeometry>
        </mxCell>
        <mxCell id="pDR1JLYmz75eAKqsYBln-7" style="edgeStyle=orthogonalEdgeStyle;rounded=0;orthogonalLoop=1;jettySize=auto;html=1;exitX=1;exitY=0.5;exitDx=0;exitDy=0;entryX=0.5;entryY=0;entryDx=0;entryDy=0;" edge="1" parent="1" source="pDR1JLYmz75eAKqsYBln-1" target="pDR1JLYmz75eAKqsYBln-6">
          <mxGeometry relative="1" as="geometry" />
        </mxCell>
        <mxCell id="pDR1JLYmz75eAKqsYBln-1" value="Jet Dataset" style="rounded=0;whiteSpace=wrap;html=1;" vertex="1" parent="1">
          <mxGeometry x="-216" y="160" width="120" height="60" as="geometry" />
        </mxCell>
        <mxCell id="pDR1JLYmz75eAKqsYBln-16" style="edgeStyle=orthogonalEdgeStyle;rounded=0;orthogonalLoop=1;jettySize=auto;html=1;exitX=0.5;exitY=1;exitDx=0;exitDy=0;" edge="1" parent="1" source="pDR1JLYmz75eAKqsYBln-2" target="pDR1JLYmz75eAKqsYBln-9">
          <mxGeometry relative="1" as="geometry" />
        </mxCell>
        <mxCell id="pDR1JLYmz75eAKqsYBln-17" style="edgeStyle=orthogonalEdgeStyle;rounded=0;orthogonalLoop=1;jettySize=auto;html=1;exitX=0.5;exitY=1;exitDx=0;exitDy=0;entryX=0.5;entryY=0;entryDx=0;entryDy=0;" edge="1" parent="1" source="pDR1JLYmz75eAKqsYBln-2" target="pDR1JLYmz75eAKqsYBln-14">
          <mxGeometry relative="1" as="geometry" />
        </mxCell>
        <mxCell id="pDR1JLYmz75eAKqsYBln-18" style="edgeStyle=orthogonalEdgeStyle;rounded=0;orthogonalLoop=1;jettySize=auto;html=1;exitX=0.5;exitY=1;exitDx=0;exitDy=0;entryX=0.5;entryY=0;entryDx=0;entryDy=0;" edge="1" parent="1" source="pDR1JLYmz75eAKqsYBln-2" target="pDR1JLYmz75eAKqsYBln-12">
          <mxGeometry relative="1" as="geometry" />
        </mxCell>
        <mxCell id="pDR1JLYmz75eAKqsYBln-19" style="edgeStyle=orthogonalEdgeStyle;rounded=0;orthogonalLoop=1;jettySize=auto;html=1;exitX=0.5;exitY=1;exitDx=0;exitDy=0;entryX=0.5;entryY=0;entryDx=0;entryDy=0;" edge="1" parent="1" source="pDR1JLYmz75eAKqsYBln-2" target="pDR1JLYmz75eAKqsYBln-13">
          <mxGeometry relative="1" as="geometry" />
        </mxCell>
        <mxCell id="pDR1JLYmz75eAKqsYBln-20" style="edgeStyle=orthogonalEdgeStyle;rounded=0;orthogonalLoop=1;jettySize=auto;html=1;exitX=0.5;exitY=1;exitDx=0;exitDy=0;" edge="1" parent="1" source="pDR1JLYmz75eAKqsYBln-2" target="pDR1JLYmz75eAKqsYBln-15">
          <mxGeometry relative="1" as="geometry" />
        </mxCell>
        <mxCell id="pDR1JLYmz75eAKqsYBln-2" value="particles" style="rounded=0;whiteSpace=wrap;html=1;" vertex="1" parent="1">
          <mxGeometry x="-540" y="250" width="120" height="60" as="geometry" />
        </mxCell>
        <mxCell id="pDR1JLYmz75eAKqsYBln-26" style="edgeStyle=orthogonalEdgeStyle;rounded=0;orthogonalLoop=1;jettySize=auto;html=1;exitX=0.5;exitY=1;exitDx=0;exitDy=0;entryX=0.5;entryY=0;entryDx=0;entryDy=0;" edge="1" parent="1" source="pDR1JLYmz75eAKqsYBln-6" target="pDR1JLYmz75eAKqsYBln-21">
          <mxGeometry relative="1" as="geometry" />
        </mxCell>
        <mxCell id="pDR1JLYmz75eAKqsYBln-27" style="edgeStyle=orthogonalEdgeStyle;rounded=0;orthogonalLoop=1;jettySize=auto;html=1;exitX=0.5;exitY=1;exitDx=0;exitDy=0;entryX=0.5;entryY=0;entryDx=0;entryDy=0;" edge="1" parent="1" source="pDR1JLYmz75eAKqsYBln-6" target="pDR1JLYmz75eAKqsYBln-24">
          <mxGeometry relative="1" as="geometry" />
        </mxCell>
        <mxCell id="pDR1JLYmz75eAKqsYBln-28" style="edgeStyle=orthogonalEdgeStyle;rounded=0;orthogonalLoop=1;jettySize=auto;html=1;exitX=0.5;exitY=1;exitDx=0;exitDy=0;" edge="1" parent="1" source="pDR1JLYmz75eAKqsYBln-6" target="pDR1JLYmz75eAKqsYBln-22">
          <mxGeometry relative="1" as="geometry" />
        </mxCell>
        <mxCell id="pDR1JLYmz75eAKqsYBln-29" style="edgeStyle=orthogonalEdgeStyle;rounded=0;orthogonalLoop=1;jettySize=auto;html=1;exitX=0.5;exitY=1;exitDx=0;exitDy=0;" edge="1" parent="1" source="pDR1JLYmz75eAKqsYBln-6" target="pDR1JLYmz75eAKqsYBln-23">
          <mxGeometry relative="1" as="geometry" />
        </mxCell>
        <mxCell id="pDR1JLYmz75eAKqsYBln-30" style="edgeStyle=orthogonalEdgeStyle;rounded=0;orthogonalLoop=1;jettySize=auto;html=1;exitX=0.5;exitY=1;exitDx=0;exitDy=0;" edge="1" parent="1" source="pDR1JLYmz75eAKqsYBln-6" target="pDR1JLYmz75eAKqsYBln-25">
          <mxGeometry relative="1" as="geometry" />
        </mxCell>
        <mxCell id="pDR1JLYmz75eAKqsYBln-6" value="subjets" style="rounded=0;whiteSpace=wrap;html=1;" vertex="1" parent="1">
          <mxGeometry x="90" y="250" width="120" height="60" as="geometry" />
        </mxCell>
        <mxCell id="pDR1JLYmz75eAKqsYBln-9" value="part_pt_log" style="ellipse;whiteSpace=wrap;html=1;" vertex="1" parent="1">
          <mxGeometry x="-740" y="370" width="80" height="60" as="geometry" />
        </mxCell>
        <mxCell id="pDR1JLYmz75eAKqsYBln-11" value="labels" style="ellipse;whiteSpace=wrap;html=1;" vertex="1" parent="1">
          <mxGeometry x="-216" y="250" width="120" height="80" as="geometry" />
        </mxCell>
        <mxCell id="pDR1JLYmz75eAKqsYBln-12" value="part_deta" style="ellipse;whiteSpace=wrap;html=1;" vertex="1" parent="1">
          <mxGeometry x="-520" y="370" width="80" height="60" as="geometry" />
        </mxCell>
        <mxCell id="pDR1JLYmz75eAKqsYBln-13" value="part_dphi" style="ellipse;whiteSpace=wrap;html=1;" vertex="1" parent="1">
          <mxGeometry x="-410" y="370" width="80" height="60" as="geometry" />
        </mxCell>
        <mxCell id="pDR1JLYmz75eAKqsYBln-14" value="part_e_log" style="ellipse;whiteSpace=wrap;html=1;" vertex="1" parent="1">
          <mxGeometry x="-630" y="370" width="80" height="60" as="geometry" />
        </mxCell>
        <mxCell id="pDR1JLYmz75eAKqsYBln-15" value="subjet_indices" style="ellipse;whiteSpace=wrap;html=1;" vertex="1" parent="1">
          <mxGeometry x="-300" y="370" width="80" height="60" as="geometry" />
        </mxCell>
        <mxCell id="pDR1JLYmz75eAKqsYBln-21" value="subjet_pt" style="ellipse;whiteSpace=wrap;html=1;" vertex="1" parent="1">
          <mxGeometry x="-110" y="370" width="80" height="60" as="geometry" />
        </mxCell>
        <mxCell id="pDR1JLYmz75eAKqsYBln-22" value="subjet_phi" style="ellipse;whiteSpace=wrap;html=1;" vertex="1" parent="1">
          <mxGeometry x="110" y="370" width="80" height="60" as="geometry" />
        </mxCell>
        <mxCell id="pDR1JLYmz75eAKqsYBln-23" value="&lt;font style=&quot;font-size: 12px;&quot;&gt;subjet_num_&lt;/font&gt;&lt;div&gt;&lt;font style=&quot;font-size: 12px;&quot;&gt;ptcls&lt;/font&gt;&lt;/div&gt;" style="ellipse;whiteSpace=wrap;html=1;" vertex="1" parent="1">
          <mxGeometry x="220" y="370" width="80" height="60" as="geometry" />
        </mxCell>
        <mxCell id="pDR1JLYmz75eAKqsYBln-24" value="subjet_eta" style="ellipse;whiteSpace=wrap;html=1;" vertex="1" parent="1">
          <mxGeometry y="370" width="80" height="60" as="geometry" />
        </mxCell>
        <mxCell id="pDR1JLYmz75eAKqsYBln-25" value="particle_&lt;div&gt;indices&lt;/div&gt;" style="ellipse;whiteSpace=wrap;html=1;" vertex="1" parent="1">
          <mxGeometry x="330" y="370" width="80" height="60" as="geometry" />
        </mxCell>
        <mxCell id="pDR1JLYmz75eAKqsYBln-31" value="(N_jets, 128)" style="rounded=0;whiteSpace=wrap;html=1;fillColor=#d80073;fontColor=#ffffff;strokeColor=#A50040;" vertex="1" parent="1">
          <mxGeometry x="-740" y="440" width="80" height="40" as="geometry" />
        </mxCell>
        <mxCell id="pDR1JLYmz75eAKqsYBln-32" value="(N_jets, 128)" style="rounded=0;whiteSpace=wrap;html=1;fillColor=#d80073;fontColor=#ffffff;strokeColor=#A50040;" vertex="1" parent="1">
          <mxGeometry x="-630" y="440" width="80" height="40" as="geometry" />
        </mxCell>
        <mxCell id="pDR1JLYmz75eAKqsYBln-33" value="(N_jets, 128)" style="rounded=0;whiteSpace=wrap;html=1;fillColor=#d80073;fontColor=#ffffff;strokeColor=#A50040;" vertex="1" parent="1">
          <mxGeometry x="-520" y="440" width="80" height="40" as="geometry" />
        </mxCell>
        <mxCell id="pDR1JLYmz75eAKqsYBln-34" value="(N_jets, 128)" style="rounded=0;whiteSpace=wrap;html=1;fillColor=#d80073;fontColor=#ffffff;strokeColor=#A50040;" vertex="1" parent="1">
          <mxGeometry x="-410" y="440" width="80" height="40" as="geometry" />
        </mxCell>
        <mxCell id="pDR1JLYmz75eAKqsYBln-35" value="(N_jets, 128)" style="rounded=0;whiteSpace=wrap;html=1;fillColor=#d80073;fontColor=#ffffff;strokeColor=#A50040;" vertex="1" parent="1">
          <mxGeometry x="-300" y="440" width="80" height="40" as="geometry" />
        </mxCell>
        <mxCell id="pDR1JLYmz75eAKqsYBln-36" value="(N_jets,)" style="rounded=0;whiteSpace=wrap;html=1;fillColor=#d80073;fontColor=#ffffff;strokeColor=#A50040;" vertex="1" parent="1">
          <mxGeometry x="-196" y="340" width="80" height="40" as="geometry" />
        </mxCell>
        <mxCell id="pDR1JLYmz75eAKqsYBln-37" value="(N_jets, N_subjets)" style="rounded=0;whiteSpace=wrap;html=1;fillColor=#d80073;fontColor=#ffffff;strokeColor=#A50040;" vertex="1" parent="1">
          <mxGeometry x="-110" y="440" width="80" height="40" as="geometry" />
        </mxCell>
        <mxCell id="pDR1JLYmz75eAKqsYBln-38" value="(N_jets, N_subjets)" style="rounded=0;whiteSpace=wrap;html=1;fillColor=#d80073;fontColor=#ffffff;strokeColor=#A50040;" vertex="1" parent="1">
          <mxGeometry y="440" width="80" height="40" as="geometry" />
        </mxCell>
        <mxCell id="pDR1JLYmz75eAKqsYBln-39" value="(N_jets, N_subjets)" style="rounded=0;whiteSpace=wrap;html=1;fillColor=#d80073;fontColor=#ffffff;strokeColor=#A50040;" vertex="1" parent="1">
          <mxGeometry x="110" y="440" width="80" height="40" as="geometry" />
        </mxCell>
        <mxCell id="pDR1JLYmz75eAKqsYBln-40" value="(N_jets, N_subjets)" style="rounded=0;whiteSpace=wrap;html=1;fillColor=#d80073;fontColor=#ffffff;strokeColor=#A50040;" vertex="1" parent="1">
          <mxGeometry x="220" y="440" width="80" height="40" as="geometry" />
        </mxCell>
        <mxCell id="pDR1JLYmz75eAKqsYBln-41" value="(N_jets, N_subjets, N_particles)" style="rounded=0;whiteSpace=wrap;html=1;fillColor=#d80073;fontColor=#ffffff;strokeColor=#A50040;" vertex="1" parent="1">
          <mxGeometry x="330" y="440" width="80" height="40" as="geometry" />
        </mxCell>
      </root>
    </mxGraphModel>
  </diagram>
</mxfile>
